<?xml version="1.0" encoding="UTF-8" standalone="no"?>
<svg width="378px" height="29px" viewBox="0 0 378 29" version="1.1" xmlns="http://www.w3.org/2000/svg" xmlns:xlink="http://www.w3.org/1999/xlink">
    <!-- Generator: Sketch 3.8.3 (29802) - http://www.bohemiancoding.com/sketch -->
    <title>Jimmy’s Big Board Copy</title>
    <desc>Created with Sketch.</desc>
    <defs>
        <path d="M338.59375,15.2109375 L338.59375,41.109375 C338.59375,41.9166707 338.320315,42.5937473 337.773438,43.140625 C337.200518,43.7135445 336.523441,44 335.742188,44 L324.21875,44 C323.411454,44 322.734378,43.7135445 322.1875,43.140625 C321.61458,42.5937473 321.328125,41.9166707 321.328125,41.109375 L321.328125,38.7265625 L321.328125,35.3671875 L327.070312,35.3671875 L327.070312,38.2578125 L332.851562,38.2578125 L332.851562,15.2109375 L338.59375,15.2109375 L338.59375,15.2109375 Z M344.375,15.2109375 L350.117188,15.2109375 L350.117188,36.8125 L350.117188,44 L344.375,44 L344.375,32.0078125 L344.375,15.2109375 L344.375,15.2109375 Z M384.6875,18.0625 L384.6875,44 L378.945312,44 L378.945312,20.953125 L373.164062,20.953125 L373.164062,44 L367.421875,44 L367.421875,20.953125 L361.640625,20.953125 L361.640625,44 L355.898438,44 L355.898438,34.234375 L355.898438,27.515625 L355.898438,18.0625 C355.898438,17.2812461 356.184893,16.6041695 356.757812,16.03125 C357.30469,15.4843723 357.981767,15.2109375 358.789062,15.2109375 L367.421875,15.2109375 C368.229171,15.2109375 368.906247,15.4843723 369.453125,16.03125 C370.026045,16.6041695 370.3125,17.2812461 370.3125,18.0625 C370.3125,17.2812461 370.585935,16.6041695 371.132812,16.03125 C371.705732,15.4843723 372.382809,15.2109375 373.164062,15.2109375 L381.835938,15.2109375 C382.617191,15.2109375 383.294268,15.4843723 383.867188,16.03125 C384.414065,16.6041695 384.6875,17.2812461 384.6875,18.0625 L384.6875,18.0625 Z M419.257812,18.0625 L419.257812,44 L413.515625,44 L413.515625,20.953125 L407.734375,20.953125 L407.734375,44 L401.992188,44 L401.992188,20.953125 L396.210938,20.953125 L396.210938,44 L390.46875,44 L390.46875,34.234375 L390.46875,27.515625 L390.46875,18.0625 C390.46875,17.2812461 390.755205,16.6041695 391.328125,16.03125 C391.875003,15.4843723 392.552079,15.2109375 393.359375,15.2109375 L401.992188,15.2109375 C402.799483,15.2109375 403.47656,15.4843723 404.023438,16.03125 C404.596357,16.6041695 404.882812,17.2812461 404.882812,18.0625 C404.882812,17.2812461 405.156247,16.6041695 405.703125,16.03125 C406.276045,15.4843723 406.953121,15.2109375 407.734375,15.2109375 L416.40625,15.2109375 C417.187504,15.2109375 417.86458,15.4843723 418.4375,16.03125 C418.984378,16.6041695 419.257812,17.2812461 419.257812,18.0625 L419.257812,18.0625 Z M439.375,15.2109375 C438.64583,16.7734453 437.200532,19.8853934 435.039062,24.546875 C434.309892,22.9843672 432.864594,19.8724191 430.703125,15.2109375 L424.257812,15.2109375 C425.559902,17.841159 428.190084,23.1145437 432.148438,31.03125 L432.148438,44 L437.929688,44 L437.929688,31.03125 C439.674488,27.5156074 442.30467,22.2422227 445.820312,15.2109375 L439.375,15.2109375 L439.375,15.2109375 Z M450.78125,15.2109375 L450.78125,17.359375 L450.78125,20.953125 L453.242188,20.953125 C452.851561,21.3177102 452.031256,22.0338488 450.78125,23.1015625 L450.78125,26.734375 C451.744796,25.7708285 453.65884,23.8437645 456.523438,20.953125 L456.523438,18.0625 L456.523438,15.2109375 L450.78125,15.2109375 L450.78125,15.2109375 Z M473.828125,23.84375 L473.828125,20.953125 L468.046875,20.953125 L468.046875,26.734375 L476.71875,26.734375 C477.500004,26.734375 478.17708,27.0078098 478.75,27.5546875 C479.296878,28.127607 479.570312,28.8046836 479.570312,29.5859375 L479.570312,41.109375 C479.570312,41.9166707 479.296878,42.5937473 478.75,43.140625 C478.17708,43.7135445 477.500004,44 476.71875,44 L465.195312,44 C464.388017,44 463.71094,43.7135445 463.164062,43.140625 C462.591143,42.5937473 462.304688,41.9166707 462.304688,41.109375 L462.304688,35.3671875 L468.046875,35.3671875 L468.046875,38.2578125 L473.828125,38.2578125 L473.828125,32.4765625 L465.195312,32.4765625 C464.388017,32.4765625 463.71094,32.2031277 463.164062,31.65625 C462.591143,31.0833305 462.304688,30.3932332 462.304688,29.5859375 L462.304688,24.78125 L462.304688,18.0625 C462.304688,17.2812461 462.591143,16.6041695 463.164062,16.03125 C463.71094,15.4843723 464.388017,15.2109375 465.195312,15.2109375 L476.71875,15.2109375 C477.500004,15.2109375 478.17708,15.4843723 478.75,16.03125 C479.296878,16.6041695 479.570312,17.2812461 479.570312,18.0625 L479.570312,23.84375 L473.828125,23.84375 L473.828125,23.84375 Z M522.8125,29.5859375 C523.593754,29.5859375 524.27083,29.872393 524.84375,30.4453125 C525.390628,30.9921902 525.664062,31.6692668 525.664062,32.4765625 L525.664062,41.109375 C525.664062,41.9166707 525.390628,42.5937473 524.84375,43.140625 C524.27083,43.7135445 523.593754,44 522.8125,44 L514.140625,44 L508.398438,44 L508.398438,38.2578125 L508.398438,32.4765625 L508.398438,26.734375 L508.398438,24.3125 L508.398438,20.953125 L508.398438,15.2109375 L514.140625,15.2109375 L522.8125,15.2109375 C523.593754,15.2109375 524.27083,15.4843723 524.84375,16.03125 C525.390628,16.6041695 525.664062,17.2812461 525.664062,18.0625 L525.664062,26.734375 C525.664062,27.5156289 525.390628,28.1927055 524.84375,28.765625 C524.27083,29.3125027 523.593754,29.5859375 522.8125,29.5859375 L522.8125,29.5859375 Z M514.140625,26.734375 L519.921875,26.734375 L519.921875,25.71875 L519.921875,20.953125 L514.140625,20.953125 L514.140625,26.734375 L514.140625,26.734375 Z M514.140625,38.2578125 L519.921875,38.2578125 L519.921875,37.2421875 L519.921875,32.4765625 L514.140625,32.4765625 L514.140625,38.2578125 L514.140625,38.2578125 Z M531.445312,15.2109375 L537.1875,15.2109375 L537.1875,36.8125 L537.1875,44 L531.445312,44 L531.445312,32.0078125 L531.445312,15.2109375 L531.445312,15.2109375 Z M554.492188,23.84375 L554.492188,20.953125 L548.710938,20.953125 L548.710938,38.2578125 L554.492188,38.2578125 L554.492188,32.4765625 L551.601562,32.4765625 L551.601562,26.734375 L560.234375,26.734375 L560.234375,32.4765625 L560.234375,41.109375 C560.234375,41.9166707 559.96094,42.5937473 559.414062,43.140625 C558.841143,43.7135445 558.164066,44 557.382812,44 L545.859375,44 C545.052079,44 544.375003,43.7135445 543.828125,43.140625 C543.255205,42.5937473 542.96875,41.9166707 542.96875,41.109375 L542.96875,32.4375 L542.96875,26.5 L542.96875,18.0625 C542.96875,17.2812461 543.255205,16.6041695 543.828125,16.03125 C544.375003,15.4843723 545.052079,15.2109375 545.859375,15.2109375 L557.382812,15.2109375 C558.164066,15.2109375 558.841143,15.4843723 559.414062,16.03125 C559.96094,16.6041695 560.234375,17.2812461 560.234375,18.0625 L560.234375,23.84375 L554.492188,23.84375 L554.492188,23.84375 Z M603.476562,29.5859375 C604.257816,29.5859375 604.934893,29.872393 605.507812,30.4453125 C606.05469,30.9921902 606.328125,31.6692668 606.328125,32.4765625 L606.328125,41.109375 C606.328125,41.9166707 606.05469,42.5937473 605.507812,43.140625 C604.934893,43.7135445 604.257816,44 603.476562,44 L594.804688,44 L589.0625,44 L589.0625,38.2578125 L589.0625,32.4765625 L589.0625,26.734375 L589.0625,24.3125 L589.0625,20.953125 L589.0625,15.2109375 L594.804688,15.2109375 L603.476562,15.2109375 C604.257816,15.2109375 604.934893,15.4843723 605.507812,16.03125 C606.05469,16.6041695 606.328125,17.2812461 606.328125,18.0625 L606.328125,26.734375 C606.328125,27.5156289 606.05469,28.1927055 605.507812,28.765625 C604.934893,29.3125027 604.257816,29.5859375 603.476562,29.5859375 L603.476562,29.5859375 Z M594.804688,26.734375 L600.585938,26.734375 L600.585938,25.71875 L600.585938,20.953125 L594.804688,20.953125 L594.804688,26.734375 L594.804688,26.734375 Z M594.804688,38.2578125 L600.585938,38.2578125 L600.585938,37.2421875 L600.585938,32.4765625 L594.804688,32.4765625 L594.804688,38.2578125 L594.804688,38.2578125 Z M629.375,18.0625 L629.375,41.109375 C629.375,41.9166707 629.101565,42.5937473 628.554688,43.140625 C627.981768,43.7135445 627.304691,44 626.523438,44 L615,44 C614.192704,44 613.515628,43.7135445 612.96875,43.140625 C612.39583,42.5937473 612.109375,41.9166707 612.109375,41.109375 L612.109375,32.4375 L612.109375,26.5 L612.109375,18.0625 C612.109375,17.2812461 612.39583,16.6041695 612.96875,16.03125 C613.515628,15.4843723 614.192704,15.2109375 615,15.2109375 L626.523438,15.2109375 C627.304691,15.2109375 627.981768,15.4843723 628.554688,16.03125 C629.101565,16.6041695 629.375,17.2812461 629.375,18.0625 L629.375,18.0625 Z M617.851562,38.2578125 L623.632812,38.2578125 L623.632812,37.125 L623.632812,20.953125 L617.851562,20.953125 L617.851562,29.5859375 L617.851562,38.2578125 L617.851562,38.2578125 Z M652.421875,44 L646.679688,44 L646.679688,32.4765625 L640.898438,32.4765625 L640.898438,44 L635.15625,44 L635.15625,34.234375 L635.15625,27.515625 L635.15625,18.0625 C635.15625,17.2812461 635.442705,16.6041695 636.015625,16.03125 C636.562503,15.4843723 637.239579,15.2109375 638.046875,15.2109375 L649.570312,15.2109375 C650.351566,15.2109375 651.028643,15.4843723 651.601562,16.03125 C652.14844,16.6041695 652.421875,17.2812461 652.421875,18.0625 L652.421875,44 L652.421875,44 Z M646.679688,26.734375 L646.679688,25.71875 L646.679688,20.953125 L640.898438,20.953125 L640.898438,26.734375 L646.679688,26.734375 L646.679688,26.734375 Z M672.617188,29.5859375 C673.398441,29.5859375 674.075518,29.872393 674.648438,30.4453125 C675.195315,30.9921902 675.46875,31.6692668 675.46875,32.4765625 L675.46875,44 L669.726562,44 L669.726562,32.4765625 L663.945312,32.4765625 L663.945312,44 L658.203125,44 L658.203125,32.4765625 L658.203125,26.734375 L658.203125,21.9296875 L658.203125,15.2109375 L663.945312,15.2109375 L672.617188,15.2109375 C673.398441,15.2109375 674.075518,15.4843723 674.648438,16.03125 C675.195315,16.6041695 675.46875,17.2812461 675.46875,18.0625 L675.46875,26.734375 C675.46875,27.5156289 675.195315,28.1927055 674.648438,28.765625 C674.075518,29.3125027 673.398441,29.5859375 672.617188,29.5859375 L672.617188,29.5859375 Z M669.726562,26.734375 L669.726562,25.71875 L669.726562,20.953125 L663.945312,20.953125 L663.945312,26.734375 L669.726562,26.734375 L669.726562,26.734375 Z M698.515625,18.0625 L698.515625,41.109375 C698.515625,41.9166707 698.24219,42.5937473 697.695312,43.140625 C697.122393,43.7135445 696.445316,44 695.664062,44 L686.992188,44 L684.140625,44 L681.25,44 L681.25,32.0078125 L681.25,15.2109375 L686.289062,15.2109375 L686.992188,15.2109375 L695.664062,15.2109375 C696.445316,15.2109375 697.122393,15.4843723 697.695312,16.03125 C698.24219,16.6041695 698.515625,17.2812461 698.515625,18.0625 L698.515625,18.0625 Z M686.992188,38.2578125 L692.773438,38.2578125 L692.773438,37.125 L692.773438,20.953125 L686.992188,20.953125 L686.992188,29.5859375 L686.992188,38.2578125 L686.992188,38.2578125 Z" id="path-1"></path>
        <filter x="-50%" y="-50%" width="200%" height="200%" filterUnits="objectBoundingBox" id="filter-2">
            <feGaussianBlur stdDeviation="1.5" in="SourceAlpha" result="shadowBlurInner1"></feGaussianBlur>
            <feOffset dx="0" dy="1" in="shadowBlurInner1" result="shadowOffsetInner1"></feOffset>
            <feComposite in="shadowOffsetInner1" in2="SourceAlpha" operator="arithmetic" k2="-1" k3="1" result="shadowInnerInner1"></feComposite>
            <feColorMatrix values="0 0 0 0 0   0 0 0 0 0   0 0 0 0 0  0 0 0 0.5 0" type="matrix" in="shadowInnerInner1"></feColorMatrix>
        </filter>
        <filter x="-50%" y="-50%" width="200%" height="200%" filterUnits="objectBoundingBox" id="filter-3">
            <feGaussianBlur stdDeviation="1.5" in="SourceAlpha" result="shadowBlurInner1"></feGaussianBlur>
            <feOffset dx="0" dy="1" in="shadowBlurInner1" result="shadowOffsetInner1"></feOffset>
            <feComposite in="shadowOffsetInner1" in2="SourceAlpha" operator="arithmetic" k2="-1" k3="1" result="shadowInnerInner1"></feComposite>
            <feColorMatrix values="0 0 0 0 0   0 0 0 0 0   0 0 0 0 0  0 0 0 0.5 0" type="matrix" in="shadowInnerInner1"></feColorMatrix>
        </filter>
    </defs>
    <g id="Page-1" stroke="none" stroke-width="1" fill="none" fill-rule="evenodd">
        <g id="Tablet-9″-Landscape" transform="translate(-321.000000, -15.000000)">
            <g id="Jimmy’s-Big-Board-Copy">
                <use fill="#4FAB79" fill-rule="evenodd" xlink:href="#path-1"></use>
                <use fill="black" fill-opacity="1" filter="url(#filter-2)" xlink:href="#path-1"></use>
                <use fill="black" fill-opacity="1" filter="url(#filter-3)" xlink:href="#path-1"></use>
            </g>
        </g>
    </g>
</svg>